<svg xmlns="http://www.w3.org/2000/svg" xmlns:xlink="http://www.w3.org/1999/xlink" xml:space="preserve" style="shape-rendering:geometricPrecision;text-rendering:geometricPrecision;image-rendering:optimizeQuality;" viewBox="0 0 6827 8533.75" x="0px" y="0px" fill-rule="evenodd" clip-rule="evenodd"><defs><style type="text/css">
   
    .fil0 {fill:none}
    .fil1 {fill:white}
   
  </style></defs><rect class="fil0" width="6827" height="6827"/><g><path class="fil1" d="M2931 3930c121,121 195,287 195,471 0,184 -75,351 -195,471 -121,121 -287,195 -471,195 -184,0 -351,-75 -471,-195 -121,-121 -195,-287 -195,-471 0,-184 75,-351 195,-471 121,-121 287,-195 471,-195 184,0 351,75 471,195zm1436 1138c-184,0 -351,-75 -471,-195 -121,-121 -195,-287 -195,-471 0,-184 75,-351 195,-471 121,-121 287,-195 471,-195 184,0 351,75 471,195 121,121 195,287 195,471 0,184 -75,351 -195,471 -121,121 -287,195 -471,195zm517 -4215l-2941 0c-300,0 -572,123 -769,320 -197,197 -320,470 -320,769l0 2941c0,300 123,572 320,769 197,197 470,320 769,320l2941 0c300,0 572,-123 769,-320 197,-197 320,-470 320,-769l0 -2941c0,-300 -123,-572 -320,-769 -197,-197 -470,-320 -769,-320zm-1758 1572c0,184 -75,351 -195,471 -121,121 -287,195 -471,195 -184,0 -351,-75 -471,-195 -121,-121 -195,-287 -195,-471 0,-184 75,-351 195,-471 121,-121 287,-195 471,-195 184,0 351,75 471,195 121,121 195,287 195,471zm1712 471c-121,121 -287,195 -471,195 -184,0 -351,-75 -471,-195 -121,-121 -195,-287 -195,-471 0,-184 75,-351 195,-471 121,-121 287,-195 471,-195 184,0 351,75 471,195 121,121 195,287 195,471 0,184 -75,351 -195,471z"/></g><text x="0" y="6842" fill="#ffff" font-size="5px" font-weight="bold" font-family="'Helvetica Neue', Helvetica, Arial-Unicode, Arial, Sans-serif">Created by IYIKON</text><text x="0" y="6847" fill="#ffff" font-size="5px" font-weight="bold" font-family="'Helvetica Neue', Helvetica, Arial-Unicode, Arial, Sans-serif">from the Noun Project</text></svg>